# xmcd
#
# Track frame offsets:
#	150
#	16842
#	30332
#	44344
#	60638
#	73817
#	91669
#	105389
#	120676
#	134088
#	148707
#	165405
#	181339
#	196238
#	214027
#	226985
#	236824
#	246735
#	258478
#	267366
#	277426
#	285676
#	298199
#	304337
#	313229
#	319247
#	336658
#	346663
#
# Disc length: 4743 seconds
#
# Revision: 1
# Processed by: cddbd v1.4PL0 Copyright (c) Steve Scherf et al.
# Submitted via: EasyCDDAExtractor 6.2.0.3
#
DISCID=bf12851c
DTITLE=Various Artist - As Melhores
DYEAR=2000
DGENRE=Forró
TTITLE0=Tradição - Pirata
TTITLE1=Pé Com Pé
TTITLE2=Tikatum
TTITLE3=A Saudade Mandou Me Avisar
TTITLE4=Aquela Do Elefante
TTITLE5=Meu Coração Chamou
TTITLE6=Tá Bão
TTITLE7=Moranguinho
TTITLE8=Hora De Namorar
TTITLE9=Bendito Seja
TTITLE10=Rainha Do Baile
TTITLE11=Barquinho
TTITLE12=Maria Fumaça
TTITLE13=Do Jeito Que A Gente Gosta
TTITLE14=Inimigo Do Peito
TTITLE15=Sessenta Dias Apaixonado
TTITLE16=Faz Isso Não Paixão
TTITLE17=Não Chora China Véia
TTITLE18=Bica Que Bica
TTITLE19=Capricha Gaitero
TTITLE20=Telefone Mudo
TTITLE21=Som De Cristal
TTITLE22=Bailezito
TTITLE23=Nosso Balanço
TTITLE24=Eu Só Quero Um Chote
TTITLE25=Cereja E Maçã
TTITLE26=Saudade
TTITLE27=Tô Voltando Pra Casa
EXTD=
EXTT0=
EXTT1=
EXTT2=
EXTT3=
EXTT4=
EXTT5=
EXTT6=
EXTT7=
EXTT8=
EXTT9=
EXTT10=
EXTT11=
EXTT12=
EXTT13=
EXTT14=
EXTT15=
EXTT16=
EXTT17=
EXTT18=
EXTT19=
EXTT20=
EXTT21=
EXTT22=
EXTT23=
EXTT24=
EXTT25=
EXTT26=
EXTT27=
PLAYORDER=
